<svg width="48" height="48" viewBox="0 0 48 48" fill="none" xmlns="http://www.w3.org/2000/svg">
<path d="M23.72 15C24.76 15 25.68 14.4 26.08 13.44C26.48 12.48 26.24 11.4 25.52 10.68C25.04 10.2 24.4 9.96 23.72 9.96C22.32 9.96 21.2 11.08 21.2 12.48C21.2 13.88 22.32 15 23.72 15ZM25.76 35.2V18.44C25.76 18 25.4 17.64 24.96 17.64H21V18.08C22.04 18.08 22.04 19.2 22.04 19.2V35.2C22.04 35.2 22.04 36.36 21 36.36V36.76H26.76V36.36C25.76 36.36 25.76 35.2 25.76 35.2Z" fill="white"/>
<circle cx="24" cy="24" r="22.5" stroke="white" stroke-width="3"/>
</svg>
